<svg width="151" height="151" viewBox="0 0 151 151" fill="none" xmlns="http://www.w3.org/2000/svg">
<path d="M126.139 21.9C105.432 4.46375 55.7539 0 55.7539 0H50.5859C50.5859 0 35.9666 2.87296 29.3505 5.7889C25.2039 7.61648 22.7219 10.3177 19.3064 13.9305C15.461 17.998 13.455 23.3712 10.8778 28.7897C8.69976 33.3691 6.52741 37.9918 5.28216 43.1846C4.18911 47.7426 1.94852 51.8562 1.30199 56.5578C-0.230018 67.6988 0.014285 78.6682 0.014285 89.991C0.014285 103.169 2.8532 113.408 8.77067 124.136C17.4268 139.829 32.8309 144.594 46.395 148.499C51.5981 149.997 56.7769 151.286 62.1284 150.945C66.0834 150.693 69.9762 149.411 73.8582 148.468C80.5686 146.839 87.1805 144.613 93.8996 143.082C103.779 140.83 113.248 137.339 121.808 130.266C126.342 126.518 129.934 120.604 133.397 115.314C137.701 108.738 141.738 101.711 145.384 94.4798C150.338 84.655 152.42 74.4886 149.973 62.842C146.43 45.9783 137.347 31.3371 126.139 21.9Z" fill="white"/>
</svg>
